<svg width="60" height="60" viewBox="0 0 60 60" fill="none" xmlns="http://www.w3.org/2000/svg">
<path fill-rule="evenodd" clip-rule="evenodd" d="M38.1096 2C39.0795 2 39.8566 2.78905 39.95 3.75412C40.7773 12.3666 47.6322 19.2215 56.2447 20.0488C57.211 20.141 58 20.9181 58 21.8892V38.1061C58 39.0771 57.211 39.8542 56.2447 39.9464C47.6322 40.7737 40.7773 47.6286 39.95 56.2411C39.8566 57.2062 39.0795 57.9952 38.1096 57.9952H21.8904C20.9205 57.9952 20.1434 57.2062 20.05 56.2411C19.2227 47.6286 12.3678 40.7737 3.75531 39.9464C2.78905 39.8542 2 39.0771 2 38.1061V21.8892C2 20.9181 2.78905 20.141 3.75531 20.0488C12.3678 19.2215 19.2227 12.3666 20.05 3.75412C20.1434 2.78905 20.9205 2 21.8904 2H38.1096ZM13.2443 29.9497C13.2443 39.2663 20.7888 46.8192 30.0958 46.8192C39.4028 46.8192 46.9473 39.2663 46.9473 29.9497C46.9473 20.6331 39.4028 13.0803 30.0958 13.0803C20.7888 13.0803 13.2443 20.6331 13.2443 29.9497Z" fill="#EC0648"/>
</svg>
