<svg width="256" height="256" viewBox="0 0 256 256" fill="none" xmlns="http://www.w3.org/2000/svg" role="img" aria-labelledby="title desc">
  <title id="title">TaleLabs favicon dark</title>
  <desc id="desc">TaleLabs compact v2 fairy-wing mark centered inside a rounded square shield for dark mode.</desc>
  <rect x="20" y="20" width="216" height="216" rx="46" fill="#FFFFFF"/>
  <g transform="translate(28 21) scale(0.78)" fill="#111111">
    <path d="M120.2 126.3C85.1 84.5 51.5 67.9 28.3 75.2C12.6 80.1 16.4 106.4 38.8 127.5C59.6 147.1 90.5 148.8 120.2 126.3Z"/>
    <path d="M135.8 126.3C170.9 84.5 204.5 67.9 227.7 75.2C243.4 80.1 239.6 106.4 217.2 127.5C196.4 147.1 165.5 148.8 135.8 126.3Z"/>
    <path d="M117.6 142.5C90.4 141.3 64 154 53.5 174.5C45.6 189.9 57.8 203.6 77.7 198.5C99.1 193 112.3 169.6 117.6 142.5Z"/>
    <path d="M138.4 142.5C165.6 141.3 192 154 202.5 174.5C210.4 189.9 198.2 203.6 178.3 198.5C156.9 193 143.7 169.6 138.4 142.5Z"/>
    <path d="M121.8 119.7C121.8 116.3 124.6 113.5 128 113.5C131.4 113.5 134.2 116.3 134.2 119.7V178.7C134.2 185.3 131.5 190.7 128 190.7C124.5 190.7 121.8 185.3 121.8 178.7V119.7Z"/>
  </g>
</svg>
